# xmcd
#
# Track frame offsets:
#	150
#	18564
#	34872
#	51936
#	65949
#	87225
#	100347
#	124458
#	140658
#	159396
#
# Disc length: 2374 seconds
#
# Revision: 4
# Processed by: cddbd v1.5.2PL0 Copyright (c) Steve Scherf et al.
# Submitted via: audiograbber 1.83.01
#
DISCID=9309440a
DTITLE=Gilberto Santa Rosa - Solo Bolero
DYEAR=2003
DGENRE=Latin
TTITLE0=Por Mas Que Intento
TTITLE1=Un Amor Para La Historia
TTITLE2=Como He Podido Estar Sin Ti
TTITLE3=Sera
TTITLE4=Mentira
TTITLE5=Se Puede
TTITLE6=No Pense Enamorarme Otra  Vez
TTITLE7=Pueden Decir
TTITLE8=Si Te Dijeron
TTITLE9=Que Alguien Me Diga
EXTD=YEAR: 2003 ID3G: 116
EXTT0=
EXTT1=
EXTT2=
EXTT3=
EXTT4=
EXTT5=
EXTT6=
EXTT7=
EXTT8=
EXTT9=
PLAYORDER=
